<svg xmlns="http://www.w3.org/2000/svg" viewBox="0 0 50 35"><defs><style>.cls-1{fill:#2f313a;}</style></defs><g id="Capa_2" data-name="Capa 2"><g id="TEXTURAS"><g id="Grupo_1009" data-name="Grupo 1009"><g id="Grupo_1001" data-name="Grupo 1001"><path id="Rectángulo_733" data-name="Rectángulo 733" class="cls-1" d="M3,0H47a3,3,0,0,1,3,3h0a3,3,0,0,1-3,3H3A3,3,0,0,1,0,3H0A3,3,0,0,1,3,0Z"/><path id="Rectángulo_732" data-name="Rectángulo 732" class="cls-1" d="M7,15H41a3,3,0,0,1,3,3h0a3,3,0,0,1-3,3H7a3,3,0,0,1-3-3H4A3,3,0,0,1,7,15Z"/><path id="Rectángulo_908" data-name="Rectángulo 908" class="cls-1" d="M3,29H47a3,3,0,0,1,3,3h0a3,3,0,0,1-3,3H3a3,3,0,0,1-3-3H0A3,3,0,0,1,3,29Z"/></g></g></g></g></svg>