<svg xmlns="http://www.w3.org/2000/svg" viewBox="0 0 37.87 39.07"><defs><style>.cls-1{fill:#ffdca6;}</style></defs><g id="Capa_2" data-name="Capa 2"><g id="CONTENIDO"><path id="Icon_awesome-instagram-2" data-name="Icon awesome-instagram-2" class="cls-1" d="M18.94,9.52a9.85,9.85,0,0,0-9.71,10v0a9.84,9.84,0,0,0,9.68,10h0a9.84,9.84,0,0,0,9.71-10v0A9.85,9.85,0,0,0,19,9.52Zm0,16.53a6.52,6.52,0,0,1,0-13,6.52,6.52,0,0,1,0,13ZM31.31,9.11a2.27,2.27,0,1,1-2.26-2.34,2.3,2.3,0,0,1,2.26,2.34Zm6.43,2.37c-.14-3.13-.84-5.9-3.06-8.19s-4.9-3-7.93-3.15S14.25,0,11.12.14,5.41,1,3.19,3.28.28,8.34.13,11.47,0,24.37.13,27.59s.84,5.9,3.06,8.19,4.9,3,7.94,3.16,12.5.18,15.62,0,5.72-.87,7.93-3.16,2.91-5.06,3.06-8.19.18-12.88,0-16.11Zm-4,19.57a6.46,6.46,0,0,1-3.6,3.72c-2.49,1-8.4.78-11.16.78s-8.67.23-11.16-.78a6.52,6.52,0,0,1-3.6-3.72c-1-2.57-.76-8.67-.76-11.51S3.2,10.58,4.18,8A6.55,6.55,0,0,1,7.78,4.3c2.49-1,8.41-.78,11.16-.78s8.68-.23,11.16.78A6.49,6.49,0,0,1,33.7,8c1,2.57.76,8.67.76,11.52S34.69,28.49,33.7,31.05Z"/></g></g></svg>