<svg xmlns="http://www.w3.org/2000/svg" viewBox="0 0 34 35"><defs><style>.cls-1{fill:#ffdca6;}.cls-2{fill:#2f313a;}</style></defs><g id="Capa_2" data-name="Capa 2"><g id="CONTENIDO"><g id="Grupo_1074" data-name="Grupo 1074"><ellipse id="Elipse_27" data-name="Elipse 27" class="cls-1" cx="17" cy="17.5" rx="17" ry="17.5"/><g id="Grupo_1073" data-name="Grupo 1073"><path id="Rect치ngulo_942" data-name="Rect치ngulo 942" class="cls-2" d="M17,7h0a2,2,0,0,1,2,2V26a2,2,0,0,1-2,2h0a2,2,0,0,1-2-2V9A2,2,0,0,1,17,7Z"/><path id="Rect치ngulo_943" data-name="Rect치ngulo 943" class="cls-2" d="M28,18.19h0a2.3,2.3,0,0,1-2.3,2.3H8.42a2.3,2.3,0,0,1-2.3-2.3h0a2.31,2.31,0,0,1,2.3-2.31H25.69A2.31,2.31,0,0,1,28,18.19Z"/></g></g></g></g></svg>