<svg xmlns="http://www.w3.org/2000/svg" viewBox="0 0 52.13 56.76"><defs><style>.cls-1{fill:#2f313a;}</style></defs><g id="Capa_2" data-name="Capa 2"><g id="TEXTURAS"><path id="Trazado_5092" data-name="Trazado 5092" class="cls-1" d="M50.77,8.6a4.91,4.91,0,0,0,1.36-3.54,5,5,0,0,0-1.36-3.58A4.31,4.31,0,0,0,47.52,0a4.42,4.42,0,0,0-3.28,1.48L26.08,21.28,7.9,1.48A4.32,4.32,0,0,0,4.65,0,4.39,4.39,0,0,0,1.36,1.48,5.26,5.26,0,0,0,0,5.06,5.16,5.16,0,0,0,1.36,8.6L19.55,28.4,1.36,48.16A5.26,5.26,0,0,0,0,51.74a5.1,5.1,0,0,0,1.36,3.54,4.26,4.26,0,0,0,3.29,1.48A4.16,4.16,0,0,0,7.9,55.28L26.08,35.52,44.24,55.28a4.25,4.25,0,0,0,3.28,1.48,4.14,4.14,0,0,0,3.25-1.48,4.91,4.91,0,0,0,1.36-3.54,5,5,0,0,0-1.36-3.58L32.62,28.4Z"/></g></g></svg>