<svg xmlns="http://www.w3.org/2000/svg" viewBox="0 0 513.5 113.87"><defs><style>.cls-1{fill:none;}.cls-2{fill:#ff6700;}</style></defs><g id="Capa_2" data-name="Capa 2"><g id="TEXTURAS"><rect class="cls-1" width="513.5" height="113.86"/><path id="Trazado_42" data-name="Trazado 42" class="cls-2" d="M0,58.26C0,40.11,11.37,27,27.1,27c6.13,0,10.57,1.93,14.76,1.93A11.09,11.09,0,0,0,48.24,27a10.77,10.77,0,0,1,2.66,7.34C50.9,41,46,45.6,39.12,45.6c-9.68,0-14.52-9.2-22.83-9.2C9,36.4,4,43.25,4,51.32,4,63.58,15.57,74.23,28.72,74.23c10.64,0,18.22-5.16,19-12.26,3.47,1.13,4.68,5.4,4.68,9.27,0,10.49-8.63,18.32-24.52,18.32C10.24,89.55,0,75.28,0,58.26"/><path id="Trazado_43" data-name="Trazado 43" class="cls-2" d="M82.6,27c17.58,0,27.83,14.27,27.83,31.29s-10.25,31.3-27.83,31.3S54.77,75.29,54.77,58.26,65,27,82.6,27M72.52,68.42c7.34,7.42,15.48,11.7,21.86,11.7a10.19,10.19,0,0,0,7.26-2.74c6.13-6,1.93-18.39-8.88-29.2-7.42-7.42-15.56-11.7-21.94-11.7a10.23,10.23,0,0,0-7.34,2.74c-6,6.05-1.69,18.47,9,29.2"/><path id="Trazado_44" data-name="Trazado 44" class="cls-2" d="M131.16,28h4c10.08,0,24.44.81,24.44,13.55,0,11-10.56,12-15.73,12-8.14,0-12.66-2.5-15.16-2.5-1,0-2.34.4-2.34,1.77s1.37,2.1,3.47,2.5c4.6,1,9.36.57,14,1.13,5.73.65,12.18,2.9,12.43,12.34.16,6.94,2.66,17.19,6,19.69H148.1c-10.81,0,.08-29.69-17.18-30.17h-.4c-2.42,0-4,.81-4,4.92,0,8.31,2.42,17.5,4.68,25.25H111.64c3.23-12.1,4.84-21.22,4.84-30.25S114.87,40.11,111.64,28ZM128,40.91c0,4.68,2.5,8.8,8.23,8.8,5.57,0,8-3.88,8-8.47,0-5.25-3.15-10.57-8.39-10.57-4.92,0-7.83,5.08-7.83,10.24"/><path id="Trazado_45" data-name="Trazado 45" class="cls-2" d="M193.43,28c18.23,0,28.23,12.58,28.23,30.25s-10,30.25-28.23,30.25H165.2c6.53-24.6,6.53-35.9,0-60.5Zm-.65,57.83c6.38,0,13.48-8.3,13.48-27.58s-7.1-27.59-13.48-27.59S180.2,39,180.2,58.26s6.29,27.58,12.58,27.58"/><path id="Trazado_46" data-name="Trazado 46" class="cls-2" d="M242.39,28c-3.22,12.1-4.84,21.13-4.84,30.25s1.62,18.15,4.84,30.25H222.87c3.23-12.1,4.84-21.14,4.84-30.25S226.1,40.11,222.87,28Z"/><path id="Trazado_47" data-name="Trazado 47" class="cls-2" d="M246.43,88.59c3.22-12.1,4.84-21.22,4.84-30.33S249.65,40.11,246.43,28h22.9c-6.45,11.21-8.55,24.68-8.55,36,0,10.88,1.94,21.85,8.07,21.85,6.94,0,7.18-13.63,16.7-13.63,9.28,0,9.2,13.07,8.07,16.38Z"/><path id="Trazado_48" data-name="Trazado 48" class="cls-2" d="M297.73,88.59c3.22-12.1,4.84-21.22,4.84-30.33S301,40.11,297.73,28h22.91c-6.46,11.21-8.55,24.68-8.55,36,0,10.88,1.93,21.85,8.06,21.85,6.94,0,7.18-13.63,16.7-13.63,9.28,0,9.2,13.07,8.07,16.38Z"/><path id="Trazado_49" data-name="Trazado 49" class="cls-2" d="M396.22,28c1.13,3.31,1.21,16.29-8.07,16.29-9.52,0-9.76-13.63-16.7-13.63-5,0-7,5.73-7,10.08,0,7.18,3.23,11,8.8,11a22.9,22.9,0,0,0,8.95-2.34v8.48a27.72,27.72,0,0,0-8.07-1.38c-10,0-10.64,8.55-10.64,16.3,0,6.37,1.37,13.06,8,13.06,9.2,0,7.18-13.55,17.18-13.55,6.29,0,9.68,5.33,7.58,16.3H349c3.23-12.1,4.84-21.14,4.84-30.33,0-9-1.61-18.15-4.84-30.25Z"/><path id="Trazado_50" data-name="Trazado 50" class="cls-2" d="M420,28h4c10.08,0,24.44.81,24.44,13.55,0,11-10.57,12-15.73,12-8.15,0-12.67-2.5-15.17-2.5-1,0-2.34.4-2.34,1.77s1.37,2.1,3.47,2.5c4.6,1,9.36.57,14,1.13,5.72.65,12.18,2.9,12.42,12.34.16,6.94,2.66,17.19,6.05,19.69H437c-10.81,0,.08-29.69-17.18-30.17h-.4c-2.42,0-4,.81-4,4.92,0,8.31,2.42,17.5,4.68,25.25H400.49c3.23-12.1,4.84-21.22,4.84-30.25S403.72,40.11,400.49,28Zm-3.15,12.9c0,4.68,2.5,8.8,8.23,8.8,5.57,0,8-3.88,8-8.47,0-5.25-3.15-10.57-8.39-10.57-4.92,0-7.83,5.08-7.83,10.24"/><path id="Trazado_51" data-name="Trazado 51" class="cls-2" d="M464.62,53.9c1.53-6.37,4.84-20.49,3.06-25.89h31.06c-1.77,5.4,1.45,19.52,3,25.89,1.62,6.62,8.23,31.94,11.78,34.6h-14c-5.17,0-6.54-3.87-6.54-8.06s1.7-8.15,1.7-12.35c0-6.77-4-9.68-11.46-9.68s-11.45,2.9-11.45,9.68c0,4.2,1.69,8.07,1.69,12.35S472,88.5,467,88.5H452.84c3.63-2.66,10.17-28,11.78-34.6m18.55,1.86c6.21,0,7.42-2.9,7.42-7.5,0-7.26-4.43-17-7.42-17s-7.42,9.76-7.42,17c0,4.6,1.29,7.5,7.42,7.5"/><path id="Trazado_52" data-name="Trazado 52" class="cls-2" d="M116.66,16.38A30.63,30.63,0,0,0,118,8.32a30.42,30.42,0,0,0-1.29-8H129.2c.3.88.33,4.33-2.14,4.33S124.47,1,122.62,1c-1.33,0-1.86,1.52-1.86,2.68,0,1.9.85,2.91,2.34,2.91A6,6,0,0,0,125.48,6V8.21a7.53,7.53,0,0,0-2.15-.38c-2.66,0-2.83,2.29-2.83,3.13a8.91,8.91,0,0,0,2.15,5.42Z"/><path id="Trazado_53" data-name="Trazado 53" class="cls-2" d="M166.64.28c.3.88.32,4.33-2.15,4.33S161.9,1,160.05,1c-1.32,0-1.86,1.52-1.86,2.68,0,1.91.86,2.91,2.34,2.91A6,6,0,0,0,162.91,6V8.21a7.51,7.51,0,0,0-2.15-.36c-2.65,0-2.83,2.27-2.83,4.33,0,1.69.37,3.47,2.13,3.47,2.44,0,1.9-3.6,4.56-3.6,1.67,0,2.58,1.42,2,4.33H154.1a30.55,30.55,0,0,0,1.28-8.06,30.89,30.89,0,0,0-1.28-8Z"/><path id="Trazado_54" data-name="Trazado 54" class="cls-2" d="M191.46,11.71a4.27,4.27,0,0,1,4.06-4.48h.12a3.64,3.64,0,0,1,3.69,3.61v0a2.66,2.66,0,0,1-1.57,2.55A3.2,3.2,0,0,0,195,11.19a2.08,2.08,0,0,0-2.23,1.93v.09c0,1.26,1.43,2.35,3.15,2.35,2.42,0,4.33-2,4.35-4.86a4.15,4.15,0,0,0-3-4.2,26.8,26.8,0,0,0-2.59-.82c-1.25-.38-2.32-1-2.34-2.42C192.32,1,194.79,0,197.12,0c1.65,0,2.94.51,4.16.51A3.16,3.16,0,0,0,203.1,0a2.87,2.87,0,0,1,.73,2,3,3,0,0,1-3,3h-.21c-2.81,0-4.59-2.85-6.39-2.85a1.06,1.06,0,0,0-1.16.95v.16c0,1,.9,1.46,1.76,1.76.69.24,1.58.5,2.68.8,3,.83,6.75,2.08,6.75,5.78,0,3.07-2.61,5.08-6.52,5.08s-6.3-1.92-6.3-4.93"/><path id="Trazado_55" data-name="Trazado 55" class="cls-2" d="M229.07.28H246.2c.28.88.3,4.33-2.28,4.33-2.4,0-1.6-3.07-3.34-3.41a1.1,1.1,0,0,0-.26,0c-1.18,0-1.56,1.84-1.56,4.2a57.28,57.28,0,0,0,1.46,11H235a55.67,55.67,0,0,0,1.48-11c0-2.36-.39-4.2-1.57-4.2l-.25,0c-1.74.37-.95,3.41-3.35,3.41-2.57,0-2.55-3.45-2.27-4.33"/><path id="Trazado_56" data-name="Trazado 56" class="cls-2" d="M276.28.28a30.42,30.42,0,0,0-1.29,8,30.42,30.42,0,0,0,1.29,8h-5.19a30.41,30.41,0,0,0,1.28-8,30.41,30.41,0,0,0-1.28-8Z"/><path id="Trazado_57" data-name="Trazado 57" class="cls-2" d="M303.25,0c2,0,4.07,1.2,4.07,4.67,0,2.3-.92,4.46-.92,6.84,0,3.13,1.61,4.42,3.53,4.42s3.54-1.29,3.54-4.42c0-2.38-.92-4.54-.92-6.83,0-3.48,2.08-4.68,4.07-4.68a4,4,0,0,1,2.32.71c-1.76,1.5-2.1,3.9-2.25,5.72-.37,4.25-1.55,10.2-6.75,10.2s-6.35-6-6.76-10.2c-.17-1.82-.49-4.22-2.25-5.72A4.17,4.17,0,0,1,303.25,0"/><path id="Trazado_58" data-name="Trazado 58" class="cls-2" d="M346.4,7.16c.41-1.69,1.29-5.44.82-6.88h8.25c-.47,1.44.39,5.19.8,6.88s2.18,8.49,3.13,9.2h-3.73c-1.38,0-1.74-1-1.74-2.14s.45-2.17.45-3.28c0-1.8-1.05-2.57-3.05-2.57s-3,.77-3,2.57c0,1.11.45,2.14.45,3.28s-.36,2.14-1.71,2.14h-3.76c1-.71,2.7-7.44,3.13-9.2m4.93.49c1.66,0,2-.77,2-2,0-1.93-1.18-4.53-2-4.53s-2,2.6-2,4.53c0,1.22.35,2,2,2"/><path id="Trazado_59" data-name="Trazado 59" class="cls-2" d="M384.16,16.38a31,31,0,0,0,1.28-8.06,30.82,30.82,0,0,0-1.28-8h6.09A19.52,19.52,0,0,0,388,9.84c0,2.9.52,5.81,2.15,5.81,1.84,0,1.9-3.62,4.43-3.62s2.45,3.47,2.15,4.35Z"/><path id="Trazado_60" data-name="Trazado 60" class="cls-2" d="M61.23,109.37H57.76a17.35,17.35,0,0,0,0-10.76h3.47c1.72,0,5.2-.18,5.2,2.64,0,2.15-2,2.8-3.31,2.8a14.93,14.93,0,0,1-2.1-.39c-.51,0-.63.68-.63,1.32a17.74,17.74,0,0,0,.83,4.39m-.56-8.16c0,1.09.49,2.18,1.45,2.18s1.58-1.09,1.58-2.18-.52-2.12-1.58-2.12-1.45,1-1.45,2.12"/><path id="Trazado_61" data-name="Trazado 61" class="cls-2" d="M67.24,103.22c.27-1.13.86-3.64.54-4.6H73.3c-.31,1,.26,3.47.53,4.6s1.46,5.68,2.09,6.15H73.43c-.92,0-1.16-.69-1.16-1.43s.3-1.45.3-2.2c0-1.2-.7-1.72-2-1.72s-2,.52-2,1.72c0,.75.3,1.44.3,2.2s-.25,1.43-1.15,1.43H65.14c.65-.47,1.81-5,2.09-6.15m3.3.33c1.1,0,1.32-.52,1.32-1.33,0-1.3-.79-3-1.32-3s-1.32,1.73-1.32,3c0,.81.23,1.33,1.32,1.33"/><path id="Trazado_62" data-name="Trazado 62" class="cls-2" d="M79.9,98.62h.71c1.79,0,4.35.14,4.35,2.41,0,2-1.88,2.13-2.8,2.13a14.35,14.35,0,0,1-2.7-.44c-.18,0-.42.07-.42.31s.24.38.62.45c.81.17,1.66.1,2.49.2,1,.11,2.17.51,2.21,2.19,0,1.23.47,3,1.07,3.5H82.9c-1.92,0,0-5.28-3.06-5.36h-.07c-.43,0-.72.14-.72.87a17.53,17.53,0,0,0,.83,4.49H76.42a17.32,17.32,0,0,0,0-10.75Zm-.56,2.29a1.41,1.41,0,0,0,1.24,1.56.74.74,0,0,0,.21,0,1.35,1.35,0,0,0,1.43-1.27,1.77,1.77,0,0,0,0-.23,1.7,1.7,0,0,0-1.49-1.88c-.87,0-1.39.9-1.39,1.82"/><path id="Trazado_63" data-name="Trazado 63" class="cls-2" d="M85.44,104c0-3,1.82-5.57,5-5.57s5,2.54,5,5.57c0,3.81-2.46,5.42-5.81,6.45-.19.06-.38.16-.38.37,0,.39.7.56,1.39.56a8,8,0,0,0,3.22-.83,1.83,1.83,0,0,1,.48,1.3,2,2,0,0,1-2,2h-.19c-1.81,0-3-1.62-4.19-1.86a2.1,2.1,0,0,1-.08-.56c0-.83,1-1.14,1.59-1.44.17-.08.3-.14.3-.27s-.13-.17-.32-.21c-2.48-.65-3.91-2.67-3.91-5.52m3.15,1.8a6.05,6.05,0,0,0,3.89,2.08,1.8,1.8,0,0,0,1.29-.48c1.09-1.08.33-3.29-1.58-5.19a6.13,6.13,0,0,0-3.91-2.08,1.75,1.75,0,0,0-1.29.48c-1.08,1.08-.3,3.27,1.6,5.19"/><path id="Trazado_64" data-name="Trazado 64" class="cls-2" d="M96.06,98.62a4.64,4.64,0,0,1,1.23-.19c1.6,0,2.18,1,2.18,2.54,0,2.35-1.44,3.73-1.44,5.46a2.51,2.51,0,0,0,2.36,2.64h.17c1.85,0,2.52-1.76,2.49-4.09a14.78,14.78,0,0,0-1.53-6.36h3.65a8.36,8.36,0,0,0-.41,2.76c0,1.12.17,2.23.17,3.34,0,3.09-1.56,4.84-4.32,4.84s-4.31-1.75-4.31-4.84c0-1.11.17-2.22.17-3.34a7.66,7.66,0,0,0-.42-2.76"/><path id="Trazado_65" data-name="Trazado 65" class="cls-2" d="M114.07,98.62c.2.59.21,2.9-1.44,2.9s-1.73-2.43-3-2.43c-.88,0-1.24,1-1.24,1.8,0,1.27.57,2,1.56,2a4,4,0,0,0,1.59-.42v1.51a4.94,4.94,0,0,0-1.43-.25c-1.78,0-1.9,1.52-1.9,2.9,0,1.14.25,2.33,1.42,2.33,1.64,0,1.28-2.41,3.06-2.41,1.12,0,1.72.94,1.35,2.9h-8.4a17.24,17.24,0,0,0,0-10.77Z"/><path id="Trazado_66" data-name="Trazado 66" class="cls-2" d="M119.2,106.26a2.85,2.85,0,0,1,2.71-3H122a2.44,2.44,0,0,1,2.46,2.42v0a1.77,1.77,0,0,1-1,1.7,2.18,2.18,0,0,0-1.87-1.49,1.39,1.39,0,0,0-1.48,1.29.13.13,0,0,0,0,.06c0,.85,1,1.58,2.11,1.58a3,3,0,0,0,2.92-3.11s0-.1,0-.15a2.78,2.78,0,0,0-2-2.81c-.56-.23-1.16-.37-1.73-.54-.83-.26-1.55-.65-1.57-1.62,0-1.51,1.62-2.18,3.19-2.18,1.1,0,2,.34,2.78.34a2.21,2.21,0,0,0,1.22-.34,2,2,0,0,1-1.5,3.31h-.15c-1.88,0-3.07-1.91-4.27-1.91a.72.72,0,0,0-.78.64v.11c0,.7.6,1,1.18,1.17s1.06.33,1.79.53c2,.56,4.52,1.39,4.52,3.87,0,2-1.75,3.4-4.36,3.4s-4.22-1.29-4.22-3.3"/><path id="Trazado_67" data-name="Trazado 67" class="cls-2" d="M131.6,98.62a17.18,17.18,0,0,0,0,10.75h-3.47a17.18,17.18,0,0,0,0-10.75Z"/><path id="Trazado_68" data-name="Trazado 68" class="cls-2" d="M134.47,98.62c2.34,0,3.1,1.37,3.1,3.12,0,.75-.14,1.42-.14,2.11s.27,1.28.93,1.28.93-.45.93-1.28-.13-1.36-.13-2.11c0-1.74.76-3.12,3.1-3.12h2.15a17.18,17.18,0,0,0,0,10.75h-4.07a12.82,12.82,0,0,0,1.5-6.25c0-1.33-.17-2.78-1.15-2.78-.53,0-1,.44-1,1.59s.43,2.49.43,3.74-.46,2.2-1.72,2.2-1.71-.94-1.71-2.21.42-2.7.42-3.73-.5-1.59-1-1.59c-1,0-1.13,1.45-1.13,2.78a12.82,12.82,0,0,0,1.5,6.25h-4.07a17.18,17.18,0,0,0,0-10.75Z"/><path id="Trazado_69" data-name="Trazado 69" class="cls-2" d="M149.57,98.43c3.12,0,4.94,2.54,4.94,5.56s-1.82,5.57-4.94,5.57-4.95-2.54-4.95-5.57,1.82-5.56,4.95-5.56m-1.79,7.37a6.08,6.08,0,0,0,3.88,2.08,1.81,1.81,0,0,0,1.29-.49c1.09-1.07.35-3.27-1.57-5.19a6.19,6.19,0,0,0-3.9-2.08,1.82,1.82,0,0,0-1.3.49c-1.08,1.07-.3,3.28,1.6,5.19"/><path id="Trazado_70" data-name="Trazado 70" class="cls-2" d="M154.73,109.37a17.18,17.18,0,0,0,0-10.75H157c2.71,0,3.08,2.38,3.21,4.34,0,.63.07,1.28.11,1.78.13,1.51.49,2.91,1.39,2.91s1.09-1.45,1.09-2.77a12.89,12.89,0,0,0-1.5-6.26h4.07a17.18,17.18,0,0,0,0,10.75h-2.3c-2.73,0-3.08-2.38-3.22-4.39,0-.6-.07-1.23-.12-1.73-.13-1.52-.5-2.91-1.39-2.91s-1.07,1.45-1.07,2.78a12.82,12.82,0,0,0,1.5,6.25Z"/><path id="Trazado_71" data-name="Trazado 71" class="cls-2" d="M170.7,98.62h4.19c1.79,0,4.35.14,4.35,2.41,0,2-1.88,2.13-2.8,2.13a14.35,14.35,0,0,1-2.7-.44c-.18,0-.42.07-.42.31s.24.38.62.45a23,23,0,0,0,2.5.2c2,.2,3.45,1.4,3.45,3.12,0,1.9-1.75,2.57-3.37,2.57H170.7a17.18,17.18,0,0,0,0-10.75m3.6,5.4c-.73,0-1,.38-1,1.44,0,.84.14,3.47,1.79,3.47,1,0,2-.92,2-2.47,0-1.36-.73-2.16-2.31-2.39a3.56,3.56,0,0,0-.47,0m.77-1.53a1.37,1.37,0,0,0,1.43-1.3,1.62,1.62,0,0,0,0-.22c0-.93-.56-1.92-1.49-1.92s-1.39,1-1.39,1.86a1.43,1.43,0,0,0,1.26,1.57h.2"/><path id="Trazado_72" data-name="Trazado 72" class="cls-2" d="M185.49,98.43c3.12,0,4.94,2.54,4.94,5.56s-1.82,5.57-4.94,5.57-5-2.54-5-5.57,1.82-5.56,5-5.56m-1.8,7.37a6.1,6.1,0,0,0,3.89,2.08,1.81,1.81,0,0,0,1.29-.49c1.09-1.07.34-3.27-1.58-5.19a6.14,6.14,0,0,0-3.9-2.08,1.84,1.84,0,0,0-1.3.49c-1.07,1.07-.3,3.28,1.61,5.19"/><path id="Trazado_73" data-name="Trazado 73" class="cls-2" d="M190.65,109.39a17.24,17.24,0,0,0,0-10.77h4.07A13.07,13.07,0,0,0,193.2,105c0,1.94.34,3.89,1.43,3.89,1.24,0,1.28-2.42,3-2.42s1.64,2.32,1.44,2.91Z"/><path id="Trazado_74" data-name="Trazado 74" class="cls-2" d="M203.24,98.62a17.18,17.18,0,0,0,0,10.75h-3.47a17.18,17.18,0,0,0,0-10.75Z"/><path id="Trazado_75" data-name="Trazado 75" class="cls-2" d="M205.22,98.43c1.33,0,2.72.8,2.72,3.13,0,1.53-.62,3-.62,4.57,0,2.1,1.08,3,2.37,3s2.37-.86,2.37-3c0-1.59-.62-3-.62-4.57,0-2.33,1.39-3.13,2.72-3.13a2.72,2.72,0,0,1,1.55.47,5.46,5.46,0,0,0-1.5,3.83c-.25,2.84-1,6.83-4.52,6.83s-4.24-4-4.52-6.83a5.47,5.47,0,0,0-1.5-3.83,2.83,2.83,0,0,1,1.55-.47"/><path id="Trazado_76" data-name="Trazado 76" class="cls-2" d="M216.3,103.22c.27-1.13.86-3.64.55-4.6h5.51c-.31,1,.26,3.47.53,4.6s1.47,5.68,2.1,6.15h-2.5c-.92,0-1.16-.69-1.16-1.43s.3-1.45.3-2.2c0-1.2-.7-1.72-2-1.72s-2,.52-2,1.72c0,.75.3,1.44.3,2.2s-.24,1.43-1.15,1.43H214.2c.65-.47,1.81-5,2.1-6.15m3.3.33c1.1,0,1.31-.52,1.31-1.33,0-1.3-.78-3-1.31-3s-1.32,1.73-1.32,3c0,.81.23,1.33,1.32,1.33"/><path id="Trazado_77" data-name="Trazado 77" class="cls-2" d="M229,98.62h.72c1.79,0,4.34.14,4.34,2.41,0,2-1.88,2.13-2.8,2.13a14.62,14.62,0,0,1-2.7-.44c-.17,0-.41.07-.41.31s.24.38.61.45c.82.17,1.67.1,2.5.2a2.12,2.12,0,0,1,2.21,2v.16c0,1.23.47,3,1.07,3.5H232c-1.92,0,0-5.28-3.05-5.36h-.06c-.43,0-.72.14-.72.87a17.13,17.13,0,0,0,.84,4.49H225.5a17.32,17.32,0,0,0,0-10.75Zm-.56,2.29a1.41,1.41,0,0,0,1.25,1.56h.21a1.36,1.36,0,0,0,1.43-1.28,1.77,1.77,0,0,0,0-.23,1.7,1.7,0,0,0-1.49-1.88c-.87,0-1.39.9-1.39,1.82"/><path id="Trazado_78" data-name="Trazado 78" class="cls-2" d="M244.35,105.63a1.51,1.51,0,1,1,1.52,1.49h0a1.48,1.48,0,0,1-1.5-1.47v0"/><path id="Trazado_79" data-name="Trazado 79" class="cls-2" d="M257.34,106.26a2.85,2.85,0,0,1,2.71-3h.09a2.44,2.44,0,0,1,2.46,2.42v0a1.77,1.77,0,0,1-1,1.7,2.18,2.18,0,0,0-1.87-1.49,1.4,1.4,0,0,0-1.49,1.29v.06c0,.85,1,1.58,2.11,1.58a3,3,0,0,0,2.92-3.11s0-.1,0-.15a2.78,2.78,0,0,0-2-2.81c-.56-.23-1.16-.37-1.73-.54-.84-.26-1.55-.65-1.57-1.62,0-1.51,1.62-2.18,3.19-2.18,1.1,0,2,.34,2.78.34a2.15,2.15,0,0,0,1.21-.34,1.9,1.9,0,0,1,.49,1.3,2,2,0,0,1-2,2h-.14c-1.88,0-3.07-1.91-4.28-1.91a.71.71,0,0,0-.77.64v.11c0,.7.6,1,1.17,1.17s1.07.33,1.8.53c2,.56,4.51,1.39,4.51,3.87,0,2-1.75,3.4-4.36,3.4s-4.21-1.29-4.21-3.3"/><path id="Trazado_80" data-name="Trazado 80" class="cls-2" d="M274.66,98.62c.2.59.21,2.9-1.44,2.9s-1.73-2.43-3-2.43c-.89,0-1.25,1-1.25,1.8,0,1.27.57,2,1.56,2a4,4,0,0,0,1.6-.42v1.51a5.06,5.06,0,0,0-1.44-.25c-1.78,0-1.89,1.52-1.89,2.9,0,1.14.24,2.33,1.42,2.33,1.63,0,1.27-2.41,3.05-2.41,1.12,0,1.72.94,1.35,2.9h-8.39a17.24,17.24,0,0,0,0-10.77Z"/><path id="Trazado_81" data-name="Trazado 81" class="cls-2" d="M278.89,109.37h-3.47a17.21,17.21,0,0,0,0-10.76h3.47c1.72,0,5.2-.18,5.2,2.64,0,2.15-2,2.8-3.31,2.8a14.93,14.93,0,0,1-2.1-.39c-.51,0-.63.68-.63,1.32a17.74,17.74,0,0,0,.83,4.39m-.55-8.16c0,1.09.48,2.18,1.44,2.18s1.58-1.09,1.58-2.18-.52-2.12-1.58-2.12-1.44,1-1.44,2.12"/><path id="Trazado_82" data-name="Trazado 82" class="cls-2" d="M284.54,98.62H296c.18.59.2,2.9-1.52,2.9s-1.08-2-2.24-2.28l-.17,0c-.79,0-1.05,1.24-1.05,2.81a38.55,38.55,0,0,0,1,7.34h-3.46a37.69,37.69,0,0,0,1-7.34c0-1.57-.26-2.81-1-2.81l-.17,0c-1.16.24-.63,2.28-2.24,2.28s-1.7-2.31-1.52-2.9"/><path id="Trazado_83" data-name="Trazado 83" class="cls-2" d="M300.2,98.62a17.18,17.18,0,0,0,0,10.75h-3.47a17.32,17.32,0,0,0,0-10.75Z"/><path id="Trazado_84" data-name="Trazado 84" class="cls-2" d="M309.3,98.62c.2.59.22,2.9-1.43,2.9s-1.74-2.43-3-2.43c-.89,0-1.25,1-1.25,1.8,0,1.27.58,2,1.57,2a4,4,0,0,0,1.59-.42v1.51a5,5,0,0,0-1.44-.25c-1.77,0-1.89,1.52-1.89,2.9,0,1.14.25,2.33,1.42,2.33,1.64,0,1.28-2.41,3.06-2.41,1.11,0,1.72.94,1.34,2.9h-8.39a17.24,17.24,0,0,0,0-10.77Z"/><path id="Trazado_85" data-name="Trazado 85" class="cls-2" d="M312.21,98.62c2.34,0,3.1,1.37,3.1,3.12,0,.75-.14,1.42-.14,2.11s.27,1.28.93,1.28.93-.45.93-1.28-.13-1.36-.13-2.11c0-1.74.76-3.12,3.1-3.12h2.15a17.32,17.32,0,0,0,0,10.75h-4.07a12.94,12.94,0,0,0,1.51-6.25c0-1.33-.17-2.78-1.15-2.78-.53,0-1.05.44-1.05,1.59s.43,2.49.43,3.74-.46,2.2-1.72,2.2-1.7-.94-1.7-2.21.41-2.7.41-3.73-.5-1.59-1.05-1.59c-1,0-1.13,1.45-1.13,2.78a12.94,12.94,0,0,0,1.51,6.25h-4.07a17.32,17.32,0,0,0,0-10.75Z"/><path id="Trazado_86" data-name="Trazado 86" class="cls-2" d="M322.87,98.62h4.18c1.8,0,4.35.14,4.35,2.41,0,2-1.88,2.13-2.8,2.13a14.35,14.35,0,0,1-2.7-.44c-.17,0-.42.07-.42.31s.25.38.62.45a23.2,23.2,0,0,0,2.49.2c2,.2,3.46,1.4,3.46,3.12,0,1.9-1.75,2.57-3.37,2.57h-5.82a17.32,17.32,0,0,0,0-10.75m3.6,5.4c-.73,0-1,.38-1,1.44,0,.84.14,3.47,1.79,3.47,1,0,1.95-.92,1.95-2.47,0-1.36-.73-2.16-2.31-2.39a3.75,3.75,0,0,0-.47,0m.77-1.53a1.37,1.37,0,0,0,1.43-1.3,1.62,1.62,0,0,0,0-.22c0-.93-.56-1.92-1.49-1.92s-1.39,1-1.39,1.86a1.41,1.41,0,0,0,1.25,1.57h.21"/><path id="Trazado_87" data-name="Trazado 87" class="cls-2" d="M336,98.62h.72c1.79,0,4.34.14,4.34,2.41,0,2-1.88,2.13-2.8,2.13a14.48,14.48,0,0,1-2.7-.44c-.17,0-.42.07-.42.31s.25.38.62.45c.82.17,1.66.1,2.5.2a2.11,2.11,0,0,1,2.2,2.19c0,1.23.48,3,1.08,3.5H339c-1.92,0,0-5.28-3-5.36h-.07c-.43,0-.72.14-.72.87a16.72,16.72,0,0,0,.83,4.49h-3.47a17.18,17.18,0,0,0,0-10.75Zm-.56,2.29a1.41,1.41,0,0,0,1.25,1.56h.21a1.36,1.36,0,0,0,1.43-1.28,1.77,1.77,0,0,0,0-.23,1.7,1.7,0,0,0-1.49-1.88c-.87,0-1.39.9-1.39,1.82"/><path id="Trazado_88" data-name="Trazado 88" class="cls-2" d="M350.47,98.62c.2.59.21,2.9-1.44,2.9s-1.73-2.43-3-2.43c-.89,0-1.25,1-1.25,1.8,0,1.27.57,2,1.56,2a4,4,0,0,0,1.59-.42v1.51a4.94,4.94,0,0,0-1.43-.25c-1.78,0-1.89,1.52-1.89,2.9,0,1.14.24,2.33,1.42,2.33,1.63,0,1.27-2.41,3.05-2.41,1.12,0,1.72.94,1.35,2.9h-8.39a17.24,17.24,0,0,0,0-10.77Z"/><path id="Trazado_89" data-name="Trazado 89" class="cls-2" d="M355.45,107.71c.1-1.68,2.33-2.14,3.35-2.5a3.11,3.11,0,0,0,2.36-3,2.76,2.76,0,0,0-2.47-3h-.07a2.07,2.07,0,0,0-2.21,1.82,1.57,1.57,0,0,0,1.59,1.52,2,2,0,0,0,1.15-.4,1.5,1.5,0,0,1-.5,2.06,1.46,1.46,0,0,1-1,.2,2.12,2.12,0,0,1-2.12-2.42c0-2.21,1.8-3.5,4.15-3.5s4,1.36,4,3.6c0,2.44-1.91,4-4.63,4-1.81,0-3.11.7-3.11,1.7a1,1,0,0,0,1,1H357c1.48,0,2.61-2.15,4.84-2.15,1.26,0,2,.7,2,1.66a2.54,2.54,0,0,1-.4,1.29,3.48,3.48,0,0,0-1.87-.45c-1.36,0-2.86.45-4,.45-1.55,0-2.23-.87-2.18-1.85"/><path id="Trazado_90" data-name="Trazado 90" class="cls-2" d="M364.16,105.77c0-.81.86-1.59,1.71-2.21,1.6-1.16,3.48-1.9,3.48-4.12a2.79,2.79,0,0,0-.1-.82,3.69,3.69,0,0,1,1-.19,1.59,1.59,0,0,1,1.59,1.59,1.55,1.55,0,0,1,0,.22c0,1.58-1.09,2.88-3.79,4.19-.47.22-1.23.61-1.24.63-1.05.53-1.19.86-1.19,1.13,0,.46.41.64.88.64h3.45a12.41,12.41,0,0,0-.23-1.82h2.69a12.15,12.15,0,0,0-.21,1.7,5.67,5.67,0,0,0,1-.18v1.07c-.22,0-.58-.1-1-.15a11.43,11.43,0,0,0,.23,1.93h-2.7a9.56,9.56,0,0,0,.23-2.06h-3.84c-1.66,0-1.92-.94-1.92-1.54"/><path id="Trazado_91" data-name="Trazado 91" class="cls-2" d="M378.19,98.62a4.64,4.64,0,0,1,1.23-.19,2,2,0,0,1,2.18,1.77,2.41,2.41,0,0,1,0,.38c0,1.55-1.12,2.18-1.12,3.5,0,1,.72,1.54,1.81,1.54,1.93,0,3-1.85,2.41-4.22a11.53,11.53,0,0,0-1.05-2.78h3.66c-.68,2,0,4.16-1.22,5.91-.65.94-2,2.06-2.24,3.26a3.15,3.15,0,0,0,.2,1.58h-3.9a2.59,2.59,0,0,1,1.19-2c.73-.43,2.09-.57,2.06-1,0-.17-.2-.2-.5-.2h-.43c-3.05,0-3.87-2-3.87-4.71a7.89,7.89,0,0,0-.41-2.77"/><path id="Trazado_92" data-name="Trazado 92" class="cls-2" d="M392.32,107.71c.1-1.68,2.33-2.14,3.34-2.5a3.11,3.11,0,0,0,2.37-3,2.76,2.76,0,0,0-2.47-3h-.07a2.07,2.07,0,0,0-2.21,1.82,1.58,1.58,0,0,0,1.6,1.52,2,2,0,0,0,1.14-.4,1.5,1.5,0,0,1-.5,2.06,1.44,1.44,0,0,1-1,.2,2.13,2.13,0,0,1-2.13-2.42c0-2.21,1.8-3.5,4.15-3.5s4,1.36,4,3.6c0,2.44-1.9,4-4.63,4-1.8,0-3.11.7-3.11,1.7a1,1,0,0,0,1,1h.1c1.47,0,2.61-2.15,4.83-2.15,1.26,0,2,.7,2,1.66a2.45,2.45,0,0,1-.4,1.29,3.47,3.47,0,0,0-1.86-.45c-1.37,0-2.87.45-4,.45-1.54,0-2.23-.87-2.18-1.85"/><path id="Trazado_93" data-name="Trazado 93" class="cls-2" d="M403.38,103.28a1.23,1.23,0,0,1,1.2.7,2.43,2.43,0,0,0-1.29,2.33,2.51,2.51,0,0,0,2.24,2.75h.15c1.54,0,2.4-1.34,2.4-3.16,0-2.06-1.12-3-3.36-3.18-1.71-.1-2.38-.69-2.38-2a2.19,2.19,0,0,1,2-2.35,2,2,0,0,1,.42,0c1.1,0,2.3.46,3.44.46a3.08,3.08,0,0,0,1.68-.46c.95,1.55.17,2.95-1.63,2.95-2.21,0-2.91-2.12-4.28-2.12-.71,0-1.16.59-1.16,1.48s.52,1.46,1.57,1.46c.63,0,1.29-.19,2.19-.19,2.39,0,3.88,1.3,3.88,3.53s-1.62,4-4.64,4-4.65-1.67-4.65-3.62c0-1.37.74-2.66,2.21-2.66"/><path id="Trazado_94" data-name="Trazado 94" class="cls-2" d="M411,111.13a21.14,21.14,0,0,0,.86-3.42l1.4-.15a16.84,16.84,0,0,1-1.36,3.49Z"/><path id="Trazado_95" data-name="Trazado 95" class="cls-2" d="M418.45,107.71c.1-1.68,2.32-2.14,3.34-2.5a3.1,3.1,0,0,0,2.36-3,2.75,2.75,0,0,0-2.46-3h-.07a2.06,2.06,0,0,0-2.21,1.82,1.56,1.56,0,0,0,1.59,1.52,2,2,0,0,0,1.15-.4,1.5,1.5,0,0,1-.51,2.06,1.43,1.43,0,0,1-1,.2,2.12,2.12,0,0,1-2.12-2.42c0-2.21,1.79-3.5,4.14-3.5s4,1.36,4,3.6c0,2.44-1.91,4-4.63,4-1.81,0-3.11.7-3.11,1.7a1,1,0,0,0,1,1h.1c1.48,0,2.61-2.15,4.83-2.15,1.27,0,2,.7,2,1.66a2.45,2.45,0,0,1-.4,1.29,3.45,3.45,0,0,0-1.86-.45c-1.36,0-2.87.45-4,.45-1.55,0-2.24-.87-2.18-1.85"/><path id="Trazado_96" data-name="Trazado 96" class="cls-2" d="M432.53,98.43c3.13,0,5,2.54,5,5.56s-1.82,5.57-5,5.57-4.95-2.54-4.95-5.57,1.82-5.56,4.95-5.56m-1.79,7.37a6.08,6.08,0,0,0,3.88,2.08,1.81,1.81,0,0,0,1.29-.49c1.09-1.07.35-3.27-1.57-5.19a6.19,6.19,0,0,0-3.9-2.08,1.84,1.84,0,0,0-1.3.49c-1.08,1.07-.3,3.28,1.6,5.19"/><path id="Trazado_97" data-name="Trazado 97" class="cls-2" d="M438.19,107.71c.1-1.68,2.33-2.14,3.34-2.5a3.11,3.11,0,0,0,2.37-3,2.76,2.76,0,0,0-2.47-3h-.07a2.05,2.05,0,0,0-2.2,1.82,1.56,1.56,0,0,0,1.59,1.52,2,2,0,0,0,1.14-.4,1.5,1.5,0,0,1-.5,2.06,1.43,1.43,0,0,1-1,.2,2.12,2.12,0,0,1-2.12-2.42c0-2.21,1.79-3.5,4.14-3.5s4,1.36,4,3.6c0,2.44-1.9,4-4.63,4-1.8,0-3.11.7-3.11,1.7a1,1,0,0,0,1,1h.1c1.47,0,2.61-2.15,4.83-2.15,1.26,0,2,.7,2,1.66a2.45,2.45,0,0,1-.4,1.29,3.45,3.45,0,0,0-1.86-.45c-1.36,0-2.87.45-4,.45-1.55,0-2.24-.87-2.18-1.85"/><path id="Trazado_98" data-name="Trazado 98" class="cls-2" d="M447.33,107.71c.1-1.68,2.32-2.14,3.34-2.5a3.1,3.1,0,0,0,2.36-3,2.75,2.75,0,0,0-2.47-3h-.07a2.05,2.05,0,0,0-2.2,1.82,1.56,1.56,0,0,0,1.59,1.52,2,2,0,0,0,1.14-.4,1.5,1.5,0,0,1-.5,2.06,1.43,1.43,0,0,1-1,.2,2.12,2.12,0,0,1-2.12-2.42c0-2.21,1.79-3.5,4.14-3.5s4,1.36,4,3.6c0,2.44-1.91,4-4.63,4-1.81,0-3.12.7-3.12,1.7a1,1,0,0,0,1,1h.1c1.48,0,2.61-2.15,4.83-2.15,1.26,0,2,.7,2,1.66a2.45,2.45,0,0,1-.4,1.29,3.45,3.45,0,0,0-1.86-.45c-1.36,0-2.87.45-4,.45-1.55,0-2.24-.87-2.18-1.85"/><path id="Trazado_99" data-name="Trazado 99" class="cls-2" d="M200.77,97.46a.41.41,0,0,0,.55.09l1.76-1c.62-.37,1.18-.94.57-1.59s-1.16-.14-1.56.35l-1.29,1.6a.43.43,0,0,0,0,.6"/><path id="Trazado_100" data-name="Trazado 100" class="cls-2" d="M149.35,97.46a.41.41,0,0,0,.55.09l1.76-1c.62-.37,1.18-.94.57-1.59s-1.16-.14-1.56.35l-1.29,1.6a.43.43,0,0,0,0,.6"/></g></g></svg>